<?xml version="1.0" encoding="UTF-8"?><svg id="Layer_2" xmlns="http://www.w3.org/2000/svg" viewBox="0 0 598.17 897.73"><defs><style>.cls-1{fill:#61b8d5;opacity:.1;}</style></defs><g id="Layer_1-2"><path class="cls-1" d="M595.44,125.11l-13.69-4.67,9.21-5.36c1.92-1.11,2.57-3.58,1.46-5.5-1.12-1.92-3.59-2.58-5.5-1.46l-15.27,8.87-8.39-2.86,16.14-9.38c1.92-1.12,2.57-3.58,1.46-5.5-1.12-1.92-3.59-2.58-5.5-1.46l-22.19,12.89-3.67-1.25,5.87-18.2c.97-3,.25-6.32-1.86-8.67l-12.83-14.18,2.83-2.65,25.53,2.63c.43,.04,.86,.02,1.26-.07,1.66-.36,2.97-1.74,3.16-3.52,.23-2.21-1.38-4.19-3.59-4.42l-18.57-1.91,6.47-6.05,17.56,1.81c.43,.04,.86,.02,1.26-.07,1.66-.36,2.97-1.74,3.16-3.52,.23-2.21-1.38-4.19-3.59-4.42l-10.6-1.09,10.56-9.88c1.62-1.52,1.71-4.06,.19-5.69-1.51-1.62-4.06-1.71-5.69-.19l-10.56,9.88-.39-10.65c-.08-2.22-1.94-3.96-4.17-3.88-2.26,.09-3.96,1.95-3.87,4.17l.64,17.65-6.47,6.06-.68-18.65c-.08-2.22-1.94-3.96-4.17-3.88-2.25,.09-3.96,1.95-3.87,4.17l.93,25.65-2.73,2.56-11.76-13c-2.12-2.34-5.35-3.38-8.44-2.72l-17.92,3.85-.8-3.73,15.39-20.54c1.33-1.78,.97-4.3-.81-5.63-1.78-1.34-4.3-.97-5.63,.81l-11.19,14.94-1.86-8.67,10.59-14.13c1.33-1.78,.97-4.3-.81-5.63-1.78-1.33-4.3-.97-5.63,.81l-6.39,8.53-3.04-14.14c-.47-2.17-2.61-3.56-4.78-3.09s-3.56,2.61-3.09,4.78l3.04,14.14-9.33-5.15c-1.94-1.07-4.39-.37-5.47,1.58-1.07,1.95-.37,4.39,1.58,5.47l15.46,8.53,1.86,8.67-16.35-9.02c-1.94-1.07-4.39-.37-5.47,1.58-1.07,1.95-.37,4.39,1.58,5.47l22.47,12.4,.8,3.73-17.92,3.85c-3.08,.66-5.6,2.94-6.57,5.95l-5.38,16.68-3.54-1.21-9.7-23.76c-.84-2.06-3.15-3.04-5.25-2.21-2.06,.84-3.04,3.19-2.2,5.25l7.05,17.28-8.39-2.86-6.67-16.35c-.84-2.05-3.14-3.04-5.25-2.21-2.06,.84-3.04,3.19-2.2,5.25l4.03,9.87-13.69-4.67c-2.11-.72-4.39,.41-5.11,2.51-.72,2.1,.41,4.39,2.51,5.11l13.69,4.67-9.21,5.35c-1.92,1.12-2.57,3.58-1.46,5.5,.9,1.55,2.67,2.27,4.33,1.91,.4-.09,.8-.24,1.18-.46l15.26-8.87,8.39,2.86-16.14,9.38c-1.92,1.12-2.57,3.58-1.46,5.5,.9,1.55,2.67,2.27,4.33,1.91,.4-.09,.8-.24,1.18-.46l22.19-12.89,3.67,1.25-5.87,18.2c-.97,3-.25,6.32,1.86,8.67l12.83,14.18-2.83,2.65-25.53-2.63c-2.2-.23-4.19,1.38-4.42,3.59-.23,2.21,1.38,4.19,3.59,4.42l18.56,1.91-6.47,6.05-17.56-1.81c-2.21-.23-4.19,1.38-4.42,3.59-.23,2.21,1.38,4.19,3.59,4.42l10.6,1.09-10.56,9.88c-1.62,1.52-1.71,4.07-.19,5.69,1,1.07,2.45,1.47,3.79,1.18,.69-.15,1.35-.48,1.9-1l10.56-9.88,.39,10.65c.08,2.22,1.94,3.96,4.17,3.88,.24-.01,.48-.04,.7-.09,1.87-.4,3.24-2.1,3.17-4.08l-.64-17.65,6.47-6.06,.68,18.65c.08,2.22,1.94,3.96,4.17,3.88,.24-.01,.48-.04,.7-.09,1.87-.4,3.24-2.1,3.17-4.08l-.93-25.65,2.73-2.56,11.76,13c2.12,2.34,5.35,3.38,8.43,2.72l17.92-3.85,.8,3.73-15.39,20.54c-1.33,1.78-.97,4.3,.81,5.63,.97,.73,2.16,.95,3.26,.71,.92-.2,1.77-.71,2.37-1.52l11.19-14.94,1.86,8.67-10.59,14.13c-1.33,1.78-.97,4.3,.81,5.63,.97,.73,2.16,.95,3.26,.71,.92-.2,1.77-.71,2.37-1.52l6.39-8.53,3.04,14.14c.47,2.17,2.61,3.56,4.78,3.09s3.56-2.61,3.09-4.78l-3.04-14.14,9.33,5.15c.88,.49,1.87,.61,2.79,.41,1.1-.24,2.09-.93,2.68-1.99,1.07-1.95,.37-4.39-1.58-5.47l-15.46-8.53-1.86-8.67,16.34,9.01c.88,.49,1.87,.61,2.79,.41,1.1-.24,2.09-.93,2.68-1.99,1.07-1.95,.37-4.39-1.58-5.47l-22.47-12.4-.8-3.73,17.92-3.85c3.09-.66,5.6-2.94,6.57-5.95l5.38-16.68,3.54,1.21,9.7,23.76c.75,1.83,2.7,2.82,4.57,2.41,.23-.05,.45-.12,.68-.21,2.06-.84,3.04-3.19,2.2-5.25l-7.05-17.28,8.39,2.86,6.67,16.35c.75,1.83,2.7,2.82,4.57,2.41,.23-.05,.45-.12,.68-.21,2.06-.84,3.04-3.19,2.2-5.25l-4.03-9.87,13.69,4.67c.72,.24,1.45,.27,2.14,.13,1.34-.29,2.49-1.25,2.97-2.64,.72-2.1-.41-4.39-2.51-5.11Zm-47.91-37.13c.2,.22,.26,.52,.17,.8l-5.82,18.07-31.01-10.57,23.92-22.38,12.74,14.08Zm-30.77-33.4c.28-.06,.58,.04,.77,.25l11.85,13.1-23.73,22.2-6.82-31.7,17.92-3.85Zm-44.31,9.95c.09-.28,.32-.49,.6-.55l17.92-3.85,6.82,31.7-30.76-10.48,5.42-16.81Zm-13.54,43.35c-.2-.22-.26-.52-.17-.8l5.82-18.07,31.01,10.57-23.92,22.38-12.74-14.08Zm30.77,33.4c-.28,.06-.58-.03-.77-.25l-11.85-13.1,23.73-22.2,6.82,31.7-17.92,3.85Zm44.31-9.95c-.09,.28-.32,.48-.6,.55l-17.92,3.85-6.82-31.7,30.76,10.48-5.42,16.81Z"/><path class="cls-1" d="M556.82,633.05l-12.91,2.84,4.68-8.56c.97-1.78,.32-4.02-1.47-4.99-1.78-.97-4.02-.32-4.99,1.47l-7.74,14.18-15.96,3.51,8.18-14.99c.97-1.78,.32-4.02-1.47-4.99-1.78-.97-4.01-.32-4.99,1.47l-11.25,20.6-15.57,3.42c-.88-2.21-2.08-4.22-3.53-6l22.4-12.33c1.78-.98,2.43-3.22,1.45-4.99-.98-1.78-3.18-2.44-5-1.45l-17.2,9.47,14.1-22.04,13.81-2.04c.09-.01,.17-.03,.25-.05,1.87-.41,3.13-2.21,2.85-4.13-.3-2.01-2.17-3.4-4.18-3.1l-7.48,1.11,5.73-8.96c1.09-1.71,.6-3.98-1.12-5.08-1.71-1.09-3.98-.6-5.08,1.12l-5.73,8.96-2.14-7.27c-.57-1.95-2.66-3.04-4.57-2.49-1.95,.57-3.07,2.62-2.49,4.57l3.94,13.41-13.85,21.64,1.35-19.06c.14-2.03-1.38-3.79-3.41-3.93-2.03-.14-3.79,1.38-3.93,3.41l-1.81,25.49c-2.28-.59-4.67-.83-7.11-.68l-3.45-15.72,13.99-18.84c1.21-1.63,.87-3.93-.76-5.15-1.63-1.21-3.94-.87-5.15,.76l-10.17,13.7-3.51-15.97,9.63-12.96c1.21-1.63,.87-3.93-.76-5.15-1.64-1.21-3.94-.87-5.15,.76l-5.81,7.83-2.83-12.9c-.44-1.98-2.4-3.24-4.38-2.8s-3.24,2.4-2.8,4.38l2.83,12.9-8.54-4.66c-1.78-.97-4.01-.32-4.99,1.47-.97,1.78-.32,4.02,1.47,4.99l14.16,7.73,3.51,15.97-14.97-8.17c-1.78-.97-4.01-.32-4.99,1.47-.97,1.78-.32,4.02,1.47,4.99l20.58,11.24,3.46,15.75c-2.21,.88-4.22,2.08-6,3.54l-12.32-22.39c-.98-1.78-3.21-2.42-5-1.45-1.78,.98-2.43,3.22-1.45,5l9.34,16.97-21.93-14.03-2.05-13.84c-.3-2.01-2.17-3.4-4.18-3.1-2.02,.32-3.4,2.17-3.1,4.18l1.1,7.46-8.93-5.71c-1.71-1.09-3.98-.6-5.08,1.12-1.09,1.71-.6,3.98,1.12,5.08l8.95,5.73-7.29,2.14c-1.95,.57-3.07,2.62-2.49,4.57,.55,1.87,2.45,2.97,4.32,2.56,.08-.02,.17-.04,.25-.06l13.39-3.93,21.94,14.04-19.27-1.37c-2.02-.14-3.78,1.38-3.93,3.41-.14,2.02,1.38,3.79,3.41,3.93l25.45,1.81c-.58,2.23-.82,4.56-.69,6.93l-15.73,3.46-18.84-13.99c-1.63-1.21-3.94-.87-5.15,.76-1.21,1.63-.87,3.93,.76,5.15l13.71,10.18-15.97,3.51-12.97-9.63c-1.63-1.21-3.93-.87-5.15,.76-1.21,1.63-.87,3.93,.76,5.15l7.83,5.82-12.93,2.84c-1.99,.44-3.24,2.4-2.8,4.38s2.4,3.24,4.38,2.8l12.91-2.84-4.66,8.54c-.97,1.78-.32,4.02,1.47,4.99,.81,.44,1.71,.55,2.55,.36,1-.22,1.91-.86,2.44-1.83l7.73-14.15,15.97-3.51-8.17,14.96c-.97,1.78-.32,4.02,1.47,4.99,.81,.44,1.71,.55,2.55,.36,1-.22,1.91-.86,2.44-1.83l11.23-20.58,15.73-3.45c.89,2.27,2.11,4.35,3.61,6.17l-22.36,12.31c-1.78,.98-2.43,3.22-1.45,5,.8,1.46,2.46,2.16,4.01,1.82,.33-.07,.67-.2,.98-.37l16.68-9.18-13.82,21.6-13.82,2.04c-2,.31-3.4,2.17-3.1,4.18,.3,2.01,2.17,3.4,4.18,3.1l7.49-1.11-5.72,8.93c-1.09,1.71-.6,3.98,1.12,5.08,.86,.55,1.85,.7,2.77,.49s1.76-.75,2.31-1.61l5.71-8.93,2.13,7.26c.55,1.87,2.45,2.97,4.32,2.56,.08-.02,.17-.04,.25-.06,1.95-.57,3.07-2.62,2.49-4.57l-3.94-13.4,14.07-21.99-1.38,19.52c-.14,2.03,1.38,3.79,3.41,3.93,.36,.03,.71,0,1.05-.07,1.55-.34,2.76-1.67,2.88-3.33l1.8-25.47c2.23,.58,4.56,.82,6.94,.7l3.42,15.58-13.98,18.83c-1.21,1.63-.87,3.93,.76,5.15,.89,.66,1.98,.86,2.98,.64,.84-.18,1.61-.66,2.16-1.4l10.16-13.69,3.51,15.97-9.62,12.95c-1.21,1.63-.87,3.93,.76,5.15,.89,.66,1.98,.86,2.98,.64,.84-.18,1.61-.66,2.16-1.4l5.8-7.82,2.84,12.92c.44,1.98,2.4,3.24,4.38,2.8s3.24-2.4,2.8-4.38l-2.84-12.93,8.56,4.67c.81,.44,1.71,.55,2.55,.36,1-.22,1.91-.86,2.44-1.83,.97-1.78,.32-4.02-1.47-4.99l-14.17-7.74-3.51-15.97,14.98,8.18c.81,.44,1.71,.55,2.55,.36,1-.22,1.91-.86,2.44-1.83,.97-1.78,.32-4.02-1.47-4.99l-20.6-11.24-3.42-15.55c2.27-.89,4.35-2.11,6.17-3.6l12.31,22.37c.8,1.46,2.46,2.16,4.01,1.82,.34-.07,.67-.2,.98-.37,1.78-.98,2.43-3.22,1.45-5l-9.34-16.97,21.73,13.91,2.04,13.84c.3,2.01,2.17,3.4,4.18,3.1,.09-.01,.17-.03,.25-.05,1.87-.41,3.13-2.21,2.85-4.13l-1.11-7.51,8.96,5.73c.86,.55,1.85,.7,2.77,.49s1.76-.75,2.31-1.61c1.1-1.71,.6-3.98-1.12-5.08l-8.93-5.72,7.24-2.13c1.95-.57,3.07-2.62,2.49-4.57-.58-1.95-2.68-3.04-4.57-2.49l-13.38,3.93-21.67-13.86,19.25,1.35c.36,.02,.71,0,1.05-.08,1.55-.34,2.76-1.67,2.88-3.34,.14-2.03-1.38-3.79-3.41-3.93l-25.51-1.79c.59-2.28,.83-4.68,.69-7.11l15.57-3.42,18.82,13.97c.89,.66,1.98,.86,2.98,.64,.84-.18,1.61-.66,2.16-1.4,1.21-1.63,.87-3.93-.76-5.15l-13.69-10.16,15.96-3.51,12.95,9.61c.89,.66,1.98,.86,2.98,.64,.84-.18,1.61-.66,2.16-1.4,1.21-1.63,.87-3.93-.76-5.15l-7.81-5.8,12.9-2.83c1.99-.44,3.24-2.4,2.8-4.38s-2.4-3.24-4.38-2.8Zm-81.5,37.8s-.02,0-.03,0c-.02,0-.04,0-.06,0,0,0-.01,0-.02,0-8.41,1.79-16.72-3.55-18.57-11.96-1.85-8.44,3.51-16.82,11.95-18.68,8.44-1.85,16.82,3.51,18.67,11.95s-3.51,16.82-11.95,18.67Z"/><path class="cls-1" d="M175.82,169.05l-12.91,2.84,4.68-8.56c.97-1.78,.32-4.02-1.47-4.99-1.78-.97-4.02-.32-4.99,1.47l-7.74,14.18-15.96,3.51,8.18-14.99c.97-1.78,.32-4.02-1.47-4.99-1.78-.97-4.01-.32-4.99,1.47l-11.25,20.6-15.57,3.42c-.88-2.21-2.08-4.22-3.53-6l22.4-12.33c1.78-.98,2.43-3.22,1.45-4.99-.98-1.78-3.18-2.44-5-1.45l-17.2,9.47,14.1-22.04,13.81-2.04c.09-.01,.17-.03,.25-.05,1.87-.41,3.13-2.21,2.85-4.13-.3-2.01-2.17-3.4-4.18-3.1l-7.48,1.11,5.73-8.96c1.09-1.71,.6-3.98-1.12-5.08-1.71-1.09-3.98-.6-5.08,1.12l-5.73,8.96-2.14-7.27c-.57-1.95-2.66-3.04-4.57-2.49-1.95,.57-3.07,2.62-2.49,4.57l3.94,13.41-13.85,21.64,1.35-19.06c.14-2.03-1.38-3.79-3.41-3.93-2.03-.14-3.79,1.38-3.93,3.41l-1.81,25.49c-2.28-.59-4.67-.83-7.11-.68l-3.45-15.72,13.99-18.84c1.21-1.63,.87-3.93-.76-5.15-1.63-1.21-3.94-.87-5.15,.76l-10.17,13.7-3.51-15.97,9.63-12.96c1.21-1.63,.87-3.93-.76-5.15-1.64-1.21-3.94-.87-5.15,.76l-5.81,7.83-2.83-12.9c-.44-1.98-2.4-3.24-4.38-2.8s-3.24,2.4-2.8,4.38l2.83,12.9-8.54-4.66c-1.78-.97-4.01-.32-4.99,1.47-.97,1.78-.32,4.02,1.47,4.99l14.16,7.73,3.51,15.97-14.97-8.17c-1.78-.97-4.01-.32-4.99,1.47-.97,1.78-.32,4.02,1.47,4.99l20.58,11.24,3.46,15.75c-2.21,.88-4.22,2.08-6,3.54l-12.32-22.39c-.98-1.78-3.21-2.42-5-1.45-1.78,.98-2.43,3.22-1.45,5l9.34,16.97-21.93-14.03-2.05-13.84c-.3-2.01-2.17-3.4-4.18-3.1-2.02,.32-3.4,2.17-3.1,4.18l1.1,7.46-8.93-5.71c-1.71-1.09-3.98-.6-5.08,1.12-1.09,1.71-.6,3.98,1.12,5.08l8.95,5.73-7.29,2.14c-1.95,.57-3.07,2.62-2.49,4.57,.55,1.87,2.45,2.97,4.32,2.56,.08-.02,.17-.04,.25-.06l13.39-3.93,21.94,14.04-19.27-1.37c-2.02-.14-3.78,1.38-3.93,3.41-.14,2.02,1.38,3.79,3.41,3.93l25.45,1.81c-.58,2.23-.82,4.56-.69,6.93l-15.73,3.46-18.84-13.99c-1.63-1.21-3.94-.87-5.15,.76-1.21,1.63-.87,3.93,.76,5.15l13.71,10.18-15.97,3.51-12.97-9.63c-1.63-1.21-3.93-.87-5.15,.76-1.21,1.63-.87,3.93,.76,5.15l7.83,5.82-12.93,2.84c-1.99,.44-3.24,2.4-2.8,4.38s2.4,3.24,4.38,2.8l12.91-2.84-4.66,8.54c-.97,1.78-.32,4.02,1.47,4.99,.81,.44,1.71,.55,2.55,.36,1-.22,1.91-.86,2.44-1.83l7.73-14.15,15.97-3.51-8.17,14.96c-.97,1.78-.32,4.02,1.47,4.99,.81,.44,1.71,.55,2.55,.36,1-.22,1.91-.86,2.44-1.83l11.23-20.58,15.73-3.45c.89,2.27,2.11,4.35,3.61,6.17l-22.36,12.31c-1.78,.98-2.43,3.22-1.45,5,.8,1.46,2.46,2.16,4.01,1.82,.33-.07,.67-.2,.98-.37l16.68-9.18-13.82,21.6-13.82,2.04c-2,.31-3.4,2.17-3.1,4.18,.3,2.01,2.17,3.4,4.18,3.1l7.49-1.11-5.72,8.93c-1.09,1.71-.6,3.98,1.12,5.08,.86,.55,1.85,.7,2.77,.49s1.76-.75,2.31-1.61l5.71-8.93,2.13,7.26c.55,1.87,2.45,2.97,4.32,2.56,.08-.02,.17-.04,.25-.06,1.95-.57,3.07-2.62,2.49-4.57l-3.94-13.4,14.07-21.99-1.38,19.52c-.14,2.03,1.38,3.79,3.41,3.93,.36,.03,.71,0,1.05-.07,1.55-.34,2.76-1.67,2.88-3.33l1.8-25.47c2.23,.58,4.56,.82,6.94,.7l3.42,15.58-13.98,18.83c-1.21,1.63-.87,3.93,.76,5.15,.89,.66,1.98,.86,2.98,.64,.84-.18,1.61-.66,2.16-1.4l10.16-13.69,3.51,15.97-9.62,12.95c-1.21,1.63-.87,3.93,.76,5.15,.89,.66,1.98,.86,2.98,.64,.84-.18,1.61-.66,2.16-1.4l5.8-7.82,2.84,12.92c.44,1.98,2.4,3.24,4.38,2.8s3.24-2.4,2.8-4.38l-2.84-12.93,8.56,4.67c.81,.44,1.71,.55,2.55,.36,1-.22,1.91-.86,2.44-1.83,.97-1.78,.32-4.02-1.47-4.99l-14.17-7.74-3.51-15.97,14.98,8.18c.81,.44,1.71,.55,2.55,.36,1-.22,1.91-.86,2.44-1.83,.97-1.78,.32-4.02-1.47-4.99l-20.6-11.24-3.42-15.55c2.27-.89,4.35-2.11,6.17-3.6l12.31,22.37c.8,1.46,2.46,2.16,4.01,1.82,.34-.07,.67-.2,.98-.37,1.78-.98,2.43-3.22,1.45-5l-9.34-16.97,21.73,13.91,2.04,13.84c.3,2.01,2.17,3.4,4.18,3.1,.09-.01,.17-.03,.25-.05,1.87-.41,3.13-2.21,2.85-4.13l-1.11-7.51,8.96,5.73c.86,.55,1.85,.7,2.77,.49s1.76-.75,2.31-1.61c1.1-1.71,.6-3.98-1.12-5.08l-8.93-5.72,7.24-2.13c1.95-.57,3.07-2.62,2.49-4.57-.58-1.95-2.68-3.04-4.57-2.49l-13.38,3.93-21.67-13.86,19.25,1.35c.36,.02,.71,0,1.05-.08,1.55-.34,2.76-1.67,2.88-3.34,.14-2.03-1.38-3.79-3.41-3.93l-25.51-1.79c.59-2.28,.83-4.68,.69-7.11l15.57-3.42,18.82,13.97c.89,.66,1.98,.86,2.98,.64,.84-.18,1.61-.66,2.16-1.4,1.21-1.63,.87-3.93-.76-5.15l-13.69-10.16,15.96-3.51,12.95,9.61c.89,.66,1.98,.86,2.98,.64,.84-.18,1.61-.66,2.16-1.4,1.21-1.63,.87-3.93-.76-5.15l-7.81-5.8,12.9-2.83c1.99-.44,3.24-2.4,2.8-4.38s-2.4-3.24-4.38-2.8Zm-81.5,37.8s-.02,0-.03,0c-.02,0-.04,0-.06,0,0,0-.01,0-.02,0-8.41,1.79-16.72-3.55-18.57-11.96-1.85-8.44,3.51-16.82,11.95-18.68,8.44-1.85,16.82,3.51,18.67,11.95s-3.51,16.82-11.95,18.67Z"/><path class="cls-1" d="M143.79,851.32l-9.18-3.77,9.17-4.04c1.3-.58,1.9-2.1,1.32-3.41-.57-1.3-2.09-1.9-3.41-1.32l-13.48,5.94c-.12,0-.24,.04-.36,.05l-7.79-3.2,14.67-6.43c1.31-.57,1.9-2.1,1.33-3.4-.57-1.31-2.09-1.9-3.4-1.33l-19.24,8.43-9.67-3.98,21.06-7.57c1.03-.37,1.71-1.35,1.71-2.44,0-1.09-.69-2.07-1.73-2.43l-20.8-7.32,9.42-3.88,19.24,8.43c.34,.15,.69,.22,1.03,.22,1,0,1.94-.58,2.37-1.55,.57-1.31-.02-2.83-1.33-3.4l-14.67-6.43,7.78-3.2c.1,.01,.2,.06,.3,.06,.02,0,.04,0,.06,0l13.49,5.94c.34,.15,.69,.22,1.04,.22,.99,0,1.94-.58,2.37-1.54,.58-1.31-.02-2.83-1.32-3.41l-9.18-4.04,9.18-3.77c1.32-.54,1.95-2.05,1.41-3.37-.02-.05-.06-.07-.08-.12-.02-.05,0-.1-.03-.15-.54-1.32-2.06-1.95-3.37-1.41l-8.51,3.5,3.4-8.35c.54-1.32-.1-2.83-1.42-3.37-1.33-.54-2.83,.1-3.37,1.42l-5.31,13.06-7.99,3.29,5.77-14.12c.54-1.32-.09-2.83-1.41-3.37-1.31-.53-2.83,.09-3.37,1.41l-7.7,18.83-10.29,4.23,9.64-20.46c.47-.99,.26-2.16-.51-2.93-.78-.77-1.95-.97-2.94-.5l-20.1,9.64,4.14-10.05,18.83-7.7c1.32-.54,1.95-2.05,1.41-3.37-.54-1.32-2.05-1.95-3.37-1.41l-14.11,5.77,3.29-7.99,13.06-5.31c1.32-.54,1.96-2.05,1.42-3.37-.53-1.32-2.05-1.96-3.37-1.42l-8.36,3.4,3.5-8.51c.54-1.32-.09-2.83-1.41-3.37-.05-.02-.1-.01-.15-.03-.04-.02-.07-.06-.12-.08-1.31-.54-2.83,.09-3.37,1.41l-3.78,9.18-4.04-9.17c-.58-1.3-2.1-1.9-3.41-1.32-1.3,.58-1.9,2.1-1.32,3.41l5.94,13.48c0,.12,.04,.23,.06,.35l-3.2,7.79-6.43-14.67c-.57-1.31-2.09-1.9-3.4-1.33-1.31,.57-1.9,2.1-1.33,3.4l8.43,19.24-3.98,9.67-7.57-21.06c-.37-1.03-1.34-1.71-2.43-1.71h0c-1.1,0-2.07,.7-2.43,1.73l-7.32,20.8-3.88-9.42,8.43-19.24c.57-1.31-.02-2.83-1.33-3.4-1.32-.58-2.83,.02-3.4,1.33l-6.43,14.67-3.2-7.78c.01-.12,.06-.24,.05-.36l5.94-13.48c.58-1.31-.02-2.83-1.32-3.41-1.31-.58-2.83,.02-3.41,1.32l-4.04,9.17-3.78-9.18c-.55-1.32-2.06-1.95-3.37-1.41-.05,.02-.08,.06-.12,.08-.05,.02-.1,0-.15,.03-1.32,.54-1.95,2.05-1.41,3.37l3.5,8.5-8.36-3.4c-1.33-.54-2.83,.1-3.37,1.42-.54,1.32,.1,2.83,1.42,3.37l13.06,5.31,3.29,7.99-14.11-5.77c-1.31-.53-2.83,.09-3.37,1.41-.54,1.32,.09,2.83,1.41,3.37l18.83,7.7,4.23,10.3-20.46-9.64c-.98-.47-2.16-.26-2.93,.52-.77,.78-.97,1.95-.49,2.94l9.64,20.1-10.06-4.14-7.7-18.83c-.54-1.32-2.05-1.95-3.37-1.41-1.32,.54-1.95,2.05-1.41,3.37l5.77,14.12-7.99-3.29-5.31-13.06c-.54-1.32-2.05-1.96-3.37-1.42-1.32,.54-1.96,2.05-1.42,3.37l3.4,8.35-8.51-3.5c-1.31-.54-2.83,.09-3.37,1.41-.02,.05-.01,.1-.03,.15-.02,.04-.06,.07-.08,.12-.54,1.32,.09,2.83,1.41,3.37l9.18,3.77-9.17,4.04c-1.3,.58-1.9,2.1-1.32,3.41,.43,.97,1.37,1.54,2.37,1.54,.35,0,.7-.07,1.04-.22l13.49-5.94s.04,0,.06,0c.1,0,.2-.05,.3-.06l7.78,3.2-14.67,6.43c-1.31,.57-1.9,2.1-1.33,3.4,.43,.97,1.37,1.55,2.37,1.55,.35,0,.7-.07,1.03-.22l19.24-8.43,9.67,3.98-21.06,7.57c-1.03,.37-1.71,1.35-1.71,2.44,0,1.09,.69,2.07,1.73,2.43l20.8,7.32-9.42,3.88-19.24-8.43c-1.31-.58-2.83,.02-3.4,1.33-.57,1.31,.02,2.83,1.33,3.4l14.67,6.43-7.79,3.2c-.12-.01-.24-.06-.36-.06l-13.48-5.94c-1.31-.58-2.83,.02-3.41,1.32-.58,1.31,.02,2.83,1.32,3.41l9.17,4.04-9.18,3.77c-1.32,.54-1.95,2.05-1.41,3.37,.02,.05,.06,.09,.08,.14,.01,.04,0,.09,.02,.13,.41,1,1.38,1.6,2.39,1.6,.33,0,.66-.06,.98-.19l8.51-3.5-3.4,8.36c-.54,1.32,.1,2.83,1.42,3.37,.32,.13,.65,.19,.97,.19,1.02,0,1.99-.61,2.39-1.61l5.31-13.06,7.99-3.29-5.77,14.12c-.54,1.32,.09,2.83,1.41,3.37,.32,.13,.65,.19,.98,.19,1.02,0,1.98-.61,2.39-1.6l7.7-18.84,10.29-4.23-9.64,20.46c-.47,.99-.26,2.16,.51,2.93,.78,.77,1.95,.97,2.94,.49l20.1-9.64-4.14,10.05-18.83,7.7c-1.32,.54-1.95,2.05-1.41,3.37,.41,1,1.38,1.6,2.39,1.6,.33,0,.66-.06,.98-.19l14.12-5.77-3.29,7.99-13.06,5.31c-1.32,.54-1.96,2.05-1.42,3.37,.41,1,1.38,1.61,2.39,1.61,.33,0,.65-.06,.97-.19l8.36-3.4-3.5,8.51c-.54,1.32,.09,2.83,1.41,3.37,.05,.02,.1,.01,.15,.03,.04,.02,.07,.06,.12,.08,.32,.13,.65,.19,.98,.19,1.01,0,1.98-.6,2.39-1.6l3.78-9.18,4.04,9.18c.43,.97,1.37,1.54,2.37,1.54,.35,0,.7-.07,1.04-.22,1.3-.58,1.9-2.1,1.32-3.41l-5.94-13.48c0-.12-.04-.24-.06-.36l3.2-7.78,6.43,14.67c.43,.97,1.37,1.55,2.37,1.55,.35,0,.7-.07,1.03-.22,1.31-.57,1.9-2.1,1.33-3.4l-8.43-19.24,3.98-9.67,7.57,21.06c.37,1.03,1.34,1.71,2.43,1.71h0c1.1,0,2.07-.69,2.43-1.73l7.32-20.8,3.88,9.43-8.43,19.24c-.57,1.31,.02,2.83,1.33,3.4,.34,.15,.69,.22,1.03,.22,1,0,1.94-.58,2.37-1.55l6.43-14.67,3.2,7.79c-.01,.12-.06,.24-.05,.36l-5.94,13.49c-.58,1.31,.02,2.83,1.32,3.41,.34,.15,.69,.22,1.04,.22,.99,0,1.94-.58,2.37-1.54l4.04-9.18,3.78,9.18c.41,1,1.38,1.6,2.39,1.6,.33,0,.66-.06,.98-.19,.05-.02,.07-.06,.12-.08,.05-.02,.1,0,.15-.03,1.32-.54,1.95-2.05,1.41-3.37l-3.5-8.51,8.36,3.4c.32,.13,.65,.19,.97,.19,1.02,0,1.99-.61,2.39-1.61,.54-1.32-.1-2.83-1.42-3.37l-13.06-5.31-3.29-7.99,14.12,5.78c.32,.13,.65,.19,.98,.19,1.02,0,1.98-.61,2.39-1.6,.54-1.32-.09-2.83-1.41-3.37l-18.84-7.71-4.23-10.29,20.46,9.64c.98,.47,2.16,.26,2.93-.51,.77-.78,.97-1.95,.49-2.94l-9.64-20.1,10.06,4.14,7.7,18.84c.41,1,1.38,1.6,2.39,1.6,.33,0,.66-.06,.98-.19,1.32-.54,1.95-2.05,1.41-3.37l-5.78-14.12,7.99,3.29,5.31,13.06c.41,1,1.38,1.61,2.39,1.61,.33,0,.66-.06,.97-.19,1.32-.54,1.96-2.05,1.42-3.37l-3.4-8.36,8.51,3.5c.32,.13,.65,.19,.98,.19,1.01,0,1.98-.6,2.39-1.6,.02-.04,0-.09,.02-.13,.02-.05,.06-.09,.08-.14,.54-1.32-.09-2.83-1.41-3.37Zm-27.55-26.44l-19.6,7.04-16.77-6.9,16.96-6.97,19.41,6.83Zm-12.86-30.74l-8.95,19-16.72,6.88,6.95-16.9,18.72-8.98Zm-30.83-12.65l7.04,19.6-6.9,16.77-6.97-16.96,6.83-19.41Zm-30.74,12.85l19.01,8.95,6.88,16.72-16.9-6.95-8.98-18.72Zm-12.65,30.83l19.6-7.04,16.77,6.9-16.96,6.97-19.41-6.83Zm12.86,30.75l8.95-19.01,16.72-6.88-6.95,16.9-18.72,8.98Zm30.83,12.65l-7.04-19.6,6.9-16.77,6.98,16.96-6.83,19.41Zm30.74-12.86l-19.01-8.96-6.88-16.72,16.91,6.95,8.98,18.72Z"/><path class="cls-1" d="M346.79,456.32l-9.18-3.77,9.17-4.04c1.3-.58,1.9-2.1,1.32-3.41-.57-1.3-2.09-1.9-3.41-1.32l-13.48,5.94c-.12,0-.24,.04-.36,.05l-7.79-3.2,14.67-6.43c1.31-.57,1.9-2.1,1.33-3.4-.57-1.31-2.09-1.9-3.4-1.33l-19.24,8.43-9.67-3.98,21.06-7.57c1.03-.37,1.71-1.35,1.71-2.44,0-1.09-.69-2.07-1.73-2.43l-20.8-7.32,9.42-3.88,19.24,8.43c.34,.15,.69,.22,1.03,.22,1,0,1.94-.58,2.37-1.55,.57-1.31-.02-2.83-1.33-3.4l-14.67-6.43,7.78-3.2c.1,.01,.2,.06,.3,.06,.02,0,.04,0,.06,0l13.49,5.94c.34,.15,.69,.22,1.04,.22,.99,0,1.94-.58,2.37-1.54,.58-1.31-.02-2.83-1.32-3.41l-9.18-4.04,9.18-3.77c1.32-.54,1.95-2.05,1.41-3.37-.02-.05-.06-.07-.08-.12-.02-.05,0-.1-.03-.15-.54-1.32-2.06-1.95-3.37-1.41l-8.51,3.5,3.4-8.35c.54-1.32-.1-2.83-1.42-3.37-1.33-.54-2.83,.1-3.37,1.42l-5.31,13.06-7.99,3.29,5.77-14.12c.54-1.32-.09-2.83-1.41-3.37-1.31-.53-2.83,.09-3.37,1.41l-7.7,18.83-10.29,4.23,9.64-20.46c.47-.99,.26-2.16-.51-2.93-.78-.77-1.95-.97-2.94-.5l-20.1,9.64,4.14-10.05,18.83-7.7c1.32-.54,1.95-2.05,1.41-3.37-.54-1.32-2.05-1.95-3.37-1.41l-14.11,5.77,3.29-7.99,13.06-5.31c1.32-.54,1.96-2.05,1.42-3.37-.53-1.32-2.05-1.96-3.37-1.42l-8.36,3.4,3.5-8.51c.54-1.32-.09-2.83-1.41-3.37-.05-.02-.1-.01-.15-.03-.04-.02-.07-.06-.12-.08-1.31-.54-2.83,.09-3.37,1.41l-3.78,9.18-4.04-9.17c-.58-1.3-2.1-1.9-3.41-1.32-1.3,.58-1.9,2.1-1.32,3.41l5.94,13.48c0,.12,.04,.23,.06,.35l-3.2,7.79-6.43-14.67c-.57-1.31-2.09-1.9-3.4-1.33-1.31,.57-1.9,2.1-1.33,3.4l8.43,19.24-3.98,9.67-7.57-21.06c-.37-1.03-1.34-1.71-2.43-1.71h0c-1.1,0-2.07,.7-2.43,1.73l-7.32,20.8-3.88-9.42,8.43-19.24c.57-1.31-.02-2.83-1.33-3.4-1.32-.58-2.83,.02-3.4,1.33l-6.43,14.67-3.2-7.78c.01-.12,.06-.24,.05-.36l5.94-13.48c.58-1.31-.02-2.83-1.32-3.41-1.31-.58-2.83,.02-3.41,1.32l-4.04,9.17-3.78-9.18c-.55-1.32-2.06-1.95-3.37-1.41-.05,.02-.08,.06-.12,.08-.05,.02-.1,0-.15,.03-1.32,.54-1.95,2.05-1.41,3.37l3.5,8.5-8.36-3.4c-1.33-.54-2.83,.1-3.37,1.42-.54,1.32,.1,2.83,1.42,3.37l13.06,5.31,3.29,7.99-14.11-5.77c-1.31-.53-2.83,.09-3.37,1.41-.54,1.32,.09,2.83,1.41,3.37l18.83,7.7,4.23,10.3-20.46-9.64c-.98-.47-2.16-.26-2.93,.52-.77,.78-.97,1.95-.49,2.94l9.64,20.1-10.06-4.14-7.7-18.83c-.54-1.32-2.05-1.95-3.37-1.41-1.32,.54-1.95,2.05-1.41,3.37l5.77,14.12-7.99-3.29-5.31-13.06c-.54-1.32-2.05-1.96-3.37-1.42-1.32,.54-1.96,2.05-1.42,3.37l3.4,8.35-8.51-3.5c-1.31-.54-2.83,.09-3.37,1.41-.02,.05-.01,.1-.03,.15-.02,.04-.06,.07-.08,.12-.54,1.32,.09,2.83,1.41,3.37l9.18,3.77-9.17,4.04c-1.3,.58-1.9,2.1-1.32,3.41,.43,.97,1.37,1.54,2.37,1.54,.35,0,.7-.07,1.04-.22l13.49-5.94s.04,0,.06,0c.1,0,.2-.05,.3-.06l7.78,3.2-14.67,6.43c-1.31,.57-1.9,2.1-1.33,3.4,.43,.97,1.37,1.55,2.37,1.55,.35,0,.7-.07,1.03-.22l19.24-8.43,9.67,3.98-21.06,7.57c-1.03,.37-1.71,1.35-1.71,2.44,0,1.09,.69,2.07,1.73,2.43l20.8,7.32-9.42,3.88-19.24-8.43c-1.31-.58-2.83,.02-3.4,1.33-.57,1.31,.02,2.83,1.33,3.4l14.67,6.43-7.79,3.2c-.12-.01-.24-.06-.36-.06l-13.48-5.94c-1.31-.58-2.83,.02-3.41,1.32-.58,1.31,.02,2.83,1.32,3.41l9.17,4.04-9.18,3.77c-1.32,.54-1.95,2.05-1.41,3.37,.02,.05,.06,.09,.08,.14,.01,.04,0,.09,.02,.13,.41,1,1.38,1.6,2.39,1.6,.33,0,.66-.06,.98-.19l8.51-3.5-3.4,8.36c-.54,1.32,.1,2.83,1.42,3.37,.32,.13,.65,.19,.97,.19,1.02,0,1.99-.61,2.39-1.61l5.31-13.06,7.99-3.29-5.77,14.12c-.54,1.32,.09,2.83,1.41,3.37,.32,.13,.65,.19,.98,.19,1.02,0,1.98-.61,2.39-1.6l7.7-18.84,10.29-4.23-9.64,20.46c-.47,.99-.26,2.16,.51,2.93,.78,.77,1.95,.97,2.94,.49l20.1-9.64-4.14,10.05-18.83,7.7c-1.32,.54-1.95,2.05-1.41,3.37,.41,1,1.38,1.6,2.39,1.6,.33,0,.66-.06,.98-.19l14.12-5.77-3.29,7.99-13.06,5.31c-1.32,.54-1.96,2.05-1.42,3.37,.41,1,1.38,1.61,2.39,1.61,.33,0,.65-.06,.97-.19l8.36-3.4-3.5,8.51c-.54,1.32,.09,2.83,1.41,3.37,.05,.02,.1,.01,.15,.03,.04,.02,.07,.06,.12,.08,.32,.13,.65,.19,.98,.19,1.01,0,1.98-.6,2.39-1.6l3.78-9.18,4.04,9.18c.43,.97,1.37,1.54,2.37,1.54,.35,0,.7-.07,1.04-.22,1.3-.58,1.9-2.1,1.32-3.41l-5.94-13.48c0-.12-.04-.24-.06-.36l3.2-7.78,6.43,14.67c.43,.97,1.37,1.55,2.37,1.55,.35,0,.7-.07,1.03-.22,1.31-.57,1.9-2.1,1.33-3.4l-8.43-19.24,3.98-9.67,7.57,21.06c.37,1.03,1.34,1.71,2.43,1.71h0c1.1,0,2.07-.69,2.43-1.73l7.32-20.8,3.88,9.43-8.43,19.24c-.57,1.31,.02,2.83,1.33,3.4,.34,.15,.69,.22,1.03,.22,1,0,1.94-.58,2.37-1.55l6.43-14.67,3.2,7.79c-.01,.12-.06,.24-.05,.36l-5.94,13.49c-.58,1.31,.02,2.83,1.32,3.41,.34,.15,.69,.22,1.04,.22,.99,0,1.94-.58,2.37-1.54l4.04-9.18,3.78,9.18c.41,1,1.38,1.6,2.39,1.6,.33,0,.66-.06,.98-.19,.05-.02,.07-.06,.12-.08,.05-.02,.1,0,.15-.03,1.32-.54,1.95-2.05,1.41-3.37l-3.5-8.51,8.36,3.4c.32,.13,.65,.19,.97,.19,1.02,0,1.99-.61,2.39-1.61,.54-1.32-.1-2.83-1.42-3.37l-13.06-5.31-3.29-7.99,14.12,5.78c.32,.13,.65,.19,.98,.19,1.02,0,1.98-.61,2.39-1.6,.54-1.32-.09-2.83-1.41-3.37l-18.84-7.71-4.23-10.29,20.46,9.64c.98,.47,2.16,.26,2.93-.51,.77-.78,.97-1.95,.49-2.94l-9.64-20.1,10.06,4.14,7.7,18.84c.41,1,1.38,1.6,2.39,1.6,.33,0,.66-.06,.98-.19,1.32-.54,1.95-2.05,1.41-3.37l-5.78-14.12,7.99,3.29,5.31,13.06c.41,1,1.38,1.61,2.39,1.61,.33,0,.66-.06,.97-.19,1.32-.54,1.96-2.05,1.42-3.37l-3.4-8.36,8.51,3.5c.32,.13,.65,.19,.98,.19,1.01,0,1.98-.6,2.39-1.6,.02-.04,0-.09,.02-.13,.02-.05,.06-.09,.08-.14,.54-1.32-.09-2.83-1.41-3.37Zm-27.55-26.44l-19.6,7.04-16.77-6.9,16.96-6.97,19.41,6.83Zm-12.86-30.74l-8.95,19-16.72,6.88,6.95-16.9,18.72-8.98Zm-30.83-12.65l7.04,19.6-6.9,16.77-6.97-16.96,6.83-19.41Zm-30.74,12.85l19.01,8.95,6.88,16.72-16.9-6.95-8.98-18.72Zm-12.65,30.83l19.6-7.04,16.77,6.9-16.96,6.97-19.41-6.83Zm12.86,30.75l8.95-19.01,16.72-6.88-6.95,16.9-18.72,8.98Zm30.83,12.65l-7.04-19.6,6.9-16.77,6.98,16.96-6.83,19.41Zm30.74-12.86l-19.01-8.96-6.88-16.72,16.91,6.95,8.98,18.72Z"/></g></svg>